<svg width="160" height="160" viewBox="0 0 160 160" fill="none" xmlns="http://www.w3.org/2000/svg">
<circle cx="80" cy="80" r="79.5" fill="#E4FFF0" fill-opacity="0.74" stroke="black"/>
<path d="M61.6377 17.5485L60.1203 19.1204C56.7222 22.6556 53.9209 24.2362 51.5892 25.2703C49.2575 26.3022 47.2982 26.6104 45.3736 28.0031C43.3218 29.4897 40.34 32.3406 39.084 37.4301C36.3914 37.9854 34.4205 38.9605 32.8661 40.2307C31.3301 41.4856 30.1735 42.9132 28.7486 44.4676C28.737 44.4851 28.7555 44.5179 28.7486 44.5353C26.7037 46.7566 24.9156 49.1483 21.4458 50.4119L20 50.9585V74.3227H64.0967C66.625 74.1937 68.3784 72.5388 69.4448 70.9056C70.5089 69.2747 71.0988 67.5082 71.3972 66.0566C72.1652 62.3575 73.5647 51.7084 73.5647 51.7084L73.6387 51.505V51.2995C73.5647 49.8216 72.9216 48.5667 72.1189 47.4037L74.7213 40.0951L78.8434 34.2185L80 32.6466L78.4802 31.3502L63.3009 18.9149L61.6377 17.5485ZM61.7835 23.5607L73.8538 33.4686L70.6731 37.9067L70.458 38.1144L70.384 38.4554L68.2882 44.3298C67.1941 43.9035 66.0675 43.604 64.8184 43.6477H64.6727L50.0717 43.7155H47.7585V52.1871C47.4347 54.5701 46.0328 55.4927 44.2887 56.1508C43.7104 56.3716 43.6387 56.2513 43.1321 56.3541V43.6499C42.7527 35.5456 45.8062 33.2129 48.1934 31.4879C48.8526 31.0091 50.7842 30.456 53.5415 29.2339C55.8455 28.2086 58.7092 26.37 61.7835 23.5607ZM38.6514 42.3491C38.6421 42.8454 38.4779 43.1952 38.5057 43.7155V61.2053H40.8189C40.8189 61.2053 43.294 61.1791 45.9519 60.18C48.6098 59.1809 51.8159 56.8416 52.3849 52.7337V48.088L64.8184 48.0202H64.8901C65.9059 47.9665 66.9027 48.2959 67.6617 48.9362C68.4206 49.5764 68.8798 50.4752 68.9382 51.4351C68.929 51.4701 68.8226 52.2812 68.7948 52.4604H59.3245V56.8329H68.2165C67.9713 58.5228 67.7469 59.5832 67.4925 61.2053H59.3245V65.5778H66.7708C66.4975 66.6355 66.0585 67.6487 65.4684 68.5839C64.8369 69.5567 64.2933 69.924 63.8075 69.9503H24.6264V53.6213C28.3761 51.7412 30.7078 49.0368 32.2161 47.4059C33.7798 45.7137 34.8531 44.4326 35.9033 43.58C36.5903 43.0247 37.666 42.7077 38.6514 42.3491Z" fill="#506599"/>
<path d="M61.36 91.6715C61.36 91.6848 61.3667 91.7848 61.38 91.9715L60.58 92.0715V97.0315C60.3533 97.1115 59.7467 97.2181 58.76 97.3515C57.7867 97.4715 56.9933 97.5315 56.38 97.5315C55.7667 97.5315 55.2333 97.4915 54.78 97.4115C54.3267 97.3181 53.8467 97.1315 53.34 96.8515C52.8333 96.5715 52.4 96.2048 52.04 95.7515C51.6933 95.2848 51.4 94.6515 51.16 93.8515C50.92 93.0515 50.8 92.1181 50.8 91.0515C50.8 88.6915 51.34 86.8515 52.42 85.5315C53.5533 84.1448 55.1 83.4515 57.06 83.4515C57.66 83.4515 58.3067 83.5115 59 83.6315C59.7067 83.7381 60.2067 83.8448 60.5 83.9515L60.74 86.8315L60.36 86.9715L60.1 84.8315C59.02 84.0981 58.0067 83.7315 57.06 83.7315C55.5533 83.7315 54.36 84.3581 53.48 85.6115C52.6 86.8648 52.16 88.6781 52.16 91.0515C52.16 93.9315 52.82 95.7915 54.14 96.6315C54.54 96.8848 54.9067 97.0515 55.24 97.1315C55.5867 97.1981 56.0667 97.2315 56.68 97.2315C57.2933 97.2315 58.1933 97.1448 59.38 96.9715L59.46 92.3715C59.46 92.2115 59.38 92.1181 59.22 92.0915L57.78 91.9915C57.7667 91.9115 57.76 91.8115 57.76 91.6915L61.36 91.6715ZM65.1044 88.2715V89.8715C66.1577 88.3248 67.191 87.5381 68.2044 87.5115C68.2844 87.5115 68.3644 87.5115 68.4444 87.5115L69.5644 87.6515L69.0444 88.8515C68.791 88.5981 68.4644 88.4715 68.0644 88.4715C67.091 88.4848 66.1044 89.1315 65.1044 90.4115V97.0515L66.8044 97.1515C66.8044 97.1648 66.7977 97.2648 66.7844 97.4515L62.5844 97.4715C62.5844 97.3515 62.591 97.2581 62.6044 97.1915L63.6444 97.0515C63.751 97.0381 63.8044 96.9448 63.8044 96.7715V88.0915C63.7777 87.9981 63.7377 87.9515 63.6844 87.9515L62.4844 87.9115L62.5044 87.6315C63.2244 87.5115 63.771 87.4515 64.1444 87.4515C64.5177 87.4515 64.771 87.5381 64.9044 87.7115C65.0377 87.8848 65.1044 88.0715 65.1044 88.2715ZM74.7397 97.5315C73.353 97.5315 72.2264 97.1315 71.3597 96.3315C70.5064 95.5315 70.0797 94.3115 70.0797 92.6715C70.0797 91.0181 70.533 89.7248 71.4397 88.7915C72.3597 87.8448 73.513 87.3715 74.8997 87.3715C76.2864 87.3715 77.413 87.7715 78.2797 88.5715C79.1464 89.3715 79.5797 90.5981 79.5797 92.2515C79.5797 93.8915 79.1197 95.1848 78.1997 96.1315C77.293 97.0648 76.1397 97.5315 74.7397 97.5315ZM74.8797 87.7315C73.8797 87.7315 73.0464 88.1648 72.3797 89.0315C71.713 89.8981 71.3797 91.0781 71.3797 92.5715C71.3797 94.0515 71.693 95.1915 72.3197 95.9915C72.9597 96.7781 73.7797 97.1715 74.7797 97.1715C75.7797 97.1715 76.613 96.7381 77.2797 95.8715C77.9464 95.0048 78.2797 93.8315 78.2797 92.3515C78.2797 90.8715 77.9597 89.7315 77.3197 88.9315C76.693 88.1315 75.8797 87.7315 74.8797 87.7315ZM97.3764 87.4515C97.3764 87.4648 97.3831 87.5648 97.3964 87.7515L96.2364 87.8715L95.5164 88.0315L91.9364 97.4515H90.7364L88.3964 89.5315L85.6964 97.4515H84.4964L81.3764 88.1115C81.2964 87.9648 81.1964 87.8848 81.0764 87.8715L80.0364 87.7715C80.0231 87.6915 80.0164 87.5915 80.0164 87.4715L84.2164 87.4515C84.2164 87.4648 84.2231 87.5648 84.2364 87.7515L82.7964 87.8515L85.4964 96.8115L88.4164 87.5515L89.0964 87.4515L91.6364 97.1315L94.7764 88.1715C94.8164 88.0915 94.7964 88.0248 94.7164 87.9715C94.6364 87.9181 94.5431 87.8848 94.4364 87.8715L93.3964 87.7715C93.3831 87.6915 93.3764 87.5915 93.3764 87.4715L97.3764 87.4515ZM102.255 97.0715L103.035 97.0315L103.095 97.2315C103.081 97.2315 102.988 97.2515 102.815 97.2915C102.415 97.3848 101.968 97.4315 101.475 97.4315C101.021 97.4048 100.608 97.3315 100.235 97.2115C99.8612 97.0781 99.5145 96.8115 99.1945 96.4115C98.8745 95.9981 98.7145 95.4715 98.7145 94.8315V87.8115H97.6945L97.8545 87.6515L98.7345 87.4715L98.8945 85.5515L100.015 85.4515V87.4515H102.435V87.8115H100.015V94.4915C100.015 95.5048 100.228 96.1915 100.655 96.5515C101.081 96.8981 101.615 97.0715 102.255 97.0715ZM106.711 83.2715V88.6915C108.457 87.4915 110.037 87.1181 111.451 87.5715C111.771 87.6648 112.044 87.8048 112.271 87.9915C112.511 88.1648 112.717 88.4315 112.891 88.7915C113.064 89.1515 113.151 89.5848 113.151 90.0915V97.0515L114.651 97.1515C114.651 97.1648 114.644 97.2648 114.631 97.4515L110.631 97.4715C110.631 97.3515 110.637 97.2581 110.651 97.1915L111.691 97.0515C111.771 97.0515 111.824 96.9915 111.851 96.8715V90.6115C111.851 90.0915 111.777 89.6448 111.631 89.2715C111.497 88.8848 111.337 88.6048 111.151 88.4315C110.964 88.2581 110.744 88.1248 110.491 88.0315C110.144 87.8981 109.837 87.8448 109.571 87.8715C108.704 87.8981 107.751 88.2515 106.711 88.9315V97.0515L108.211 97.1515C108.211 97.1648 108.204 97.2648 108.191 97.4515L104.191 97.4715C104.191 97.3515 104.197 97.2581 104.211 97.1915L105.251 97.0515C105.357 97.0381 105.411 96.9448 105.411 96.7715V83.1715C105.411 83.0248 105.371 82.9515 105.291 82.9515L104.091 82.9115L104.111 82.6315C104.831 82.5115 105.377 82.4515 105.751 82.4515C106.124 82.4515 106.377 82.5381 106.511 82.7115C106.644 82.8848 106.711 83.0715 106.711 83.2715ZM50.76 107.751L50.78 107.451H53.42L58.2 117.591L62.9 107.451H65.54C65.54 107.478 65.5467 107.525 65.56 107.591C65.5733 107.658 65.5733 107.711 65.56 107.751L64.5 107.871C64.3667 107.885 64.2867 107.971 64.26 108.131V121.071L65.74 121.151C65.74 121.165 65.7333 121.265 65.72 121.451L61.7 121.471L61.72 121.191L62.76 121.051C62.8933 121.038 62.9733 120.958 63 120.811V108.171L58.44 118.031L58.04 118.831H57.58L52.52 108.151V121.031L54.8 121.151C54.8 121.165 54.7933 121.265 54.78 121.451L50.76 121.471L50.78 121.191L51.82 121.051C51.9533 121.038 52.0333 120.951 52.06 120.791V108.131C52.0333 107.971 51.9533 107.885 51.82 107.871L50.76 107.751ZM72.8445 120.691H72.7845C71.5845 121.251 70.4179 121.531 69.2845 121.531C67.5112 121.531 66.5712 120.831 66.4645 119.431C66.4512 119.338 66.4445 119.251 66.4445 119.171C66.4445 118.145 67.1179 117.458 68.4645 117.111C69.2645 116.938 70.7045 116.731 72.7845 116.491V114.731C72.7845 114.171 72.7179 113.691 72.5845 113.291C72.4512 112.891 72.3045 112.598 72.1445 112.411C71.9845 112.211 71.7779 112.058 71.5245 111.951C71.2045 111.818 70.8445 111.751 70.4445 111.751C70.0579 111.751 69.6112 111.851 69.1045 112.051C68.3712 112.358 67.7179 112.745 67.1445 113.211L67.0645 114.771L66.6845 114.871V112.451L66.8845 112.371C67.9245 111.918 68.7179 111.645 69.2645 111.551C69.8112 111.458 70.2112 111.411 70.4645 111.411C70.7179 111.398 70.9579 111.398 71.1845 111.411C71.4245 111.425 71.7312 111.485 72.1045 111.591C72.4779 111.698 72.7979 111.851 73.0645 112.051C73.3445 112.238 73.5845 112.525 73.7845 112.911C73.9845 113.298 74.0845 113.758 74.0845 114.291V120.411C74.0845 120.825 74.1912 121.031 74.4045 121.031L75.6245 121.091L75.6045 121.391C74.8579 121.498 74.1912 121.551 73.6045 121.551C73.4445 121.538 73.2779 121.458 73.1045 121.311C72.9312 121.151 72.8445 120.945 72.8445 120.691ZM69.6445 121.211C70.6312 121.211 71.6779 120.865 72.7845 120.171V116.871C70.7845 116.938 69.5245 117.058 69.0045 117.231C68.4979 117.391 68.1445 117.651 67.9445 118.011C67.7579 118.358 67.6645 118.705 67.6645 119.051C67.6645 119.118 67.6645 119.185 67.6645 119.251C67.7045 119.945 67.9112 120.445 68.2845 120.751C68.6579 121.058 69.1112 121.211 69.6445 121.211ZM78.8544 112.271V113.871C79.9077 112.325 80.941 111.538 81.9544 111.511C82.0344 111.511 82.1144 111.511 82.1944 111.511L83.3144 111.651L82.7944 112.851C82.541 112.598 82.2144 112.471 81.8144 112.471C80.841 112.485 79.8544 113.131 78.8544 114.411V121.051L80.5544 121.151C80.5544 121.165 80.5477 121.265 80.5344 121.451L76.3344 121.471C76.3344 121.351 76.341 121.258 76.3544 121.191L77.3944 121.051C77.501 121.038 77.5544 120.945 77.5544 120.771V112.091C77.5277 111.998 77.4877 111.951 77.4344 111.951L76.2344 111.911L76.2544 111.631C76.9744 111.511 77.521 111.451 77.8944 111.451C78.2677 111.451 78.521 111.538 78.6544 111.711C78.7877 111.885 78.8544 112.071 78.8544 112.271ZM84.425 121.471L84.445 121.191L85.485 121.051C85.5783 121.038 85.6383 120.971 85.665 120.851V107.171C85.665 107.025 85.625 106.951 85.545 106.951L84.325 106.911L84.345 106.631C85.185 106.511 85.7583 106.451 86.065 106.451C86.385 106.451 86.6117 106.538 86.745 106.711C86.8917 106.885 86.965 107.071 86.965 107.271V121.051L88.465 121.151C88.465 121.165 88.4583 121.265 88.445 121.451L84.425 121.471ZM93.965 121.151C93.965 121.165 93.9583 121.265 93.945 121.451H91.425L86.965 116.131L90.405 112.151C90.405 111.978 90.3517 111.885 90.245 111.871L89.205 111.731C89.1917 111.665 89.185 111.571 89.185 111.451L93.385 111.471C93.385 111.485 93.3917 111.585 93.405 111.771L91.125 111.911L87.765 115.571L92.585 121.051L93.965 121.151ZM95.4227 116.851C95.4227 119.731 96.5427 121.171 98.7827 121.171C99.3693 121.171 99.996 121.111 100.663 120.991C101.329 120.858 101.756 120.738 101.943 120.631L102.083 120.831C101.776 121.031 101.269 121.198 100.563 121.331C99.8693 121.465 99.2293 121.531 98.6427 121.531C98.0693 121.531 97.5493 121.471 97.0827 121.351C96.6293 121.231 96.1627 121.018 95.6827 120.711C95.2027 120.405 94.8227 119.925 94.5427 119.271C94.2627 118.618 94.1227 117.818 94.1227 116.871C94.1227 115.111 94.576 113.765 95.4827 112.831C96.4293 111.858 97.5293 111.371 98.7827 111.371C100.036 111.371 100.989 111.718 101.643 112.411C102.309 113.105 102.643 114.078 102.643 115.331C102.643 115.598 102.623 115.885 102.583 116.191H95.4427C95.4293 116.338 95.4227 116.558 95.4227 116.851ZM101.463 115.191C101.463 114.191 101.243 113.378 100.803 112.751C100.363 112.111 99.7627 111.791 99.0027 111.791C98.016 111.791 97.1827 112.225 96.5027 113.091C95.956 113.771 95.616 114.678 95.4827 115.811H101.443C101.456 115.665 101.463 115.458 101.463 115.191ZM108.407 121.071L109.187 121.031L109.247 121.231C109.234 121.231 109.14 121.251 108.967 121.291C108.567 121.385 108.12 121.431 107.627 121.431C107.174 121.405 106.76 121.331 106.387 121.211C106.014 121.078 105.667 120.811 105.347 120.411C105.027 119.998 104.867 119.471 104.867 118.831V111.811H103.847L104.007 111.651L104.887 111.471L105.047 109.551L106.167 109.451V111.451H108.587V111.811H106.167V118.491C106.167 119.505 106.38 120.191 106.807 120.551C107.234 120.898 107.767 121.071 108.407 121.071ZM112.863 112.271V121.051L114.363 121.151C114.363 121.165 114.356 121.265 114.343 121.451L110.343 121.471C110.343 121.351 110.35 121.258 110.363 121.191L111.403 121.051C111.483 121.051 111.536 120.991 111.563 120.871V112.091C111.536 111.998 111.496 111.951 111.443 111.951L110.243 111.911L110.263 111.631C110.983 111.511 111.53 111.451 111.903 111.451C112.276 111.451 112.53 111.538 112.663 111.711C112.796 111.885 112.863 112.071 112.863 112.271ZM112.183 108.771C111.916 108.771 111.71 108.691 111.563 108.531C111.416 108.358 111.343 108.138 111.343 107.871C111.343 107.591 111.416 107.371 111.563 107.211C111.723 107.038 111.936 106.951 112.203 106.951C112.47 106.951 112.683 107.038 112.843 107.211C113.016 107.371 113.103 107.598 113.103 107.891C113.103 108.171 113.016 108.391 112.843 108.551C112.67 108.698 112.45 108.771 112.183 108.771ZM115.67 121.471L115.69 121.191L116.73 121.051C116.85 121.038 116.91 120.945 116.91 120.771V112.111C116.884 112.005 116.844 111.951 116.79 111.951L115.57 111.911L115.59 111.631C116.43 111.511 116.997 111.451 117.29 111.451C117.824 111.451 118.124 111.685 118.19 112.151H118.21V112.571C119.304 111.825 120.35 111.431 121.35 111.391C122.324 111.391 123.064 111.585 123.57 111.971C123.797 112.145 123.997 112.418 124.17 112.791C124.357 113.151 124.45 113.585 124.45 114.091V121.051L125.95 121.151C125.95 121.165 125.944 121.265 125.93 121.451L121.93 121.471C121.93 121.351 121.937 121.258 121.95 121.191L122.99 121.051C123.097 121.038 123.15 120.945 123.15 120.771V114.591C123.15 114.058 123.077 113.605 122.93 113.231C122.797 112.858 122.644 112.585 122.47 112.411C122.297 112.238 122.084 112.105 121.83 112.011C121.537 111.905 121.23 111.851 120.91 111.851C120.11 111.865 119.21 112.178 118.21 112.791V121.051L119.71 121.151C119.71 121.165 119.704 121.265 119.69 121.451L115.67 121.471ZM126.504 123.511C126.504 122.258 127.264 121.185 128.784 120.291C128.13 119.931 127.804 119.478 127.804 118.931C127.804 118.371 128.07 117.938 128.604 117.631C127.564 117.165 127.044 116.178 127.044 114.671C127.044 113.645 127.43 112.838 128.204 112.251C128.977 111.665 129.964 111.371 131.164 111.371C131.724 111.371 132.257 111.438 132.764 111.571L136.104 111.371L136.064 112.131L133.684 111.991C134.55 112.551 134.984 113.398 134.984 114.531C134.984 115.665 134.617 116.531 133.884 117.131C133.15 117.731 132.204 118.031 131.044 118.031C130.27 118.031 129.637 117.965 129.144 117.831C128.917 118.085 128.804 118.378 128.804 118.711C128.804 119.311 129.044 119.745 129.524 120.011C130.044 120.318 130.964 120.585 132.284 120.811C132.59 120.865 132.81 120.911 132.944 120.951C133.09 120.978 133.297 121.018 133.564 121.071C133.83 121.125 134.03 121.178 134.164 121.231C134.297 121.271 134.464 121.338 134.664 121.431C134.877 121.511 135.037 121.591 135.144 121.671C135.25 121.751 135.37 121.851 135.504 121.971C135.637 122.091 135.737 122.225 135.804 122.371C135.95 122.718 136.024 123.118 136.024 123.571C136.024 124.038 135.884 124.478 135.604 124.891C135.324 125.305 134.937 125.618 134.444 125.831C133.484 126.245 132.384 126.451 131.144 126.451C129.504 126.451 128.317 126.158 127.584 125.571C126.864 124.998 126.504 124.311 126.504 123.511ZM129.104 120.451C128.237 121.398 127.804 122.325 127.804 123.231C127.804 124.138 128.064 124.838 128.584 125.331C129.117 125.838 129.924 126.091 131.004 126.091C132.084 126.091 132.97 125.885 133.664 125.471C134.37 125.058 134.724 124.398 134.724 123.491C134.724 122.771 134.497 122.245 134.044 121.911C133.604 121.578 132.977 121.331 132.164 121.171C130.524 120.865 129.504 120.625 129.104 120.451ZM131.104 111.631C130.277 111.631 129.61 111.891 129.104 112.411C128.597 112.918 128.344 113.685 128.344 114.711C128.344 115.738 128.537 116.505 128.924 117.011C129.31 117.518 129.937 117.771 130.804 117.771C131.684 117.771 132.37 117.485 132.864 116.911C133.37 116.325 133.624 115.538 133.624 114.551C133.624 112.605 132.784 111.631 131.104 111.631Z" fill="#1E1E1E"/>
</svg>
